<?xml version="1.0" standalone="no"?>
<!DOCTYPE svg PUBLIC "-//W3C//DTD SVG 20010904//EN"
 "http://www.w3.org/TR/2001/REC-SVG-20010904/DTD/svg10.dtd">
<svg version="1.0" xmlns="http://www.w3.org/2000/svg"
 width="591.000000pt" height="189.000000pt" viewBox="0 0 591.000000 189.000000"
 preserveAspectRatio="xMidYMid meet">
<g transform="translate(0.000000,189.000000) scale(0.100000,-0.100000)"
fill="#000000" stroke="none">
<path d="M1478 1883 c816 -2 2148 -2 2960 0 812 1 145 2 -1483 2 -1628 0
-2293 -1 -1477 -2z"/>
<path d="M5 935 c0 -517 1 -727 2 -467 2 261 2 684 0 940 -1 257 -2 44 -2
-473z"/>
<path d="M410 1415 c0 -14 141 -209 281 -388 33 -42 59 -81 57 -85 -3 -7 -74
-103 -255 -342 -46 -59 -83 -115 -83 -124 0 -14 71 -16 724 -16 441 0 726 4
728 9 2 6 32 40 68 78 36 37 105 111 154 163 50 52 119 125 154 162 35 37 62
72 60 77 -3 8 -123 138 -306 332 -40 42 -87 93 -104 113 l-31 36 -723 0 c-632
0 -724 -2 -724 -15z m465 -25 c3 -5 1 -10 -4 -10 -6 0 -11 5 -11 10 0 6 2 10
4 10 3 0 8 -4 11 -10z m-200 -72 c52 -72 209 -283 245 -330 11 -14 20 -33 20
-42 0 -9 -24 -47 -52 -86 -29 -38 -71 -94 -93 -125 -22 -31 -45 -61 -50 -68
-20 -24 -104 -140 -107 -147 -2 -5 -34 -9 -73 -11 -52 -2 -69 0 -67 9 1 7 33
52 70 100 37 48 88 115 112 150 25 35 64 87 88 117 23 29 42 56 42 59 0 2 -70
98 -156 213 -86 114 -159 213 -161 220 -3 8 15 11 64 11 l68 -1 50 -69z m201
4 c27 -35 54 -71 59 -80 6 -9 56 -79 113 -154 56 -75 102 -140 102 -143 0 -5
-128 -178 -162 -220 -5 -5 -44 -57 -86 -113 l-78 -104 -67 -1 c-70 -1 -76 5
-46 38 34 37 189 246 189 255 0 5 6 13 13 17 13 9 97 119 97 128 0 9 -301 410
-311 413 -5 2 -9 9 -9 17 0 9 19 12 68 11 l68 -1 50 -63z m1036 -30 c221 -228
321 -339 316 -351 -3 -9 -172 -190 -338 -363 l-65 -68 -464 -1 c-255 0 -465 2
-467 4 -2 2 40 61 93 130 54 70 121 157 148 194 28 38 56 74 63 81 6 7 12 19
12 25 0 10 -48 79 -97 142 -78 100 -213 284 -213 291 0 5 184 8 464 6 l464 -2
84 -88z m-1042 -792 c0 -5 -5 -10 -11 -10 -5 0 -7 5 -4 10 3 6 8 10 11 10 2 0
4 -4 4 -10z"/>
<path d="M804 1030 c0 -13 4 -16 10 -10 7 7 7 13 0 20 -6 6 -10 3 -10 -10z"/>
<path d="M1006 1067 c3 -10 9 -15 12 -12 3 3 0 11 -7 18 -10 9 -11 8 -5 -6z"/>
<path d="M1500 1190 c-89 -53 -107 -161 -39 -235 16 -18 17 -24 4 -65 -44
-143 -56 -191 -50 -200 4 -6 66 -10 161 -10 l154 0 0 23 c0 13 -6 46 -14 73
-8 27 -17 67 -21 89 -4 22 -11 45 -16 52 -7 8 -1 25 20 54 35 48 39 88 16 147
-33 81 -140 117 -215 72z m137 -51 c12 -7 28 -28 37 -46 14 -29 14 -38 2 -67
-8 -18 -24 -40 -35 -48 l-22 -15 29 -117 29 -116 -104 0 c-95 0 -104 2 -99 18
3 9 17 59 32 110 l26 93 -25 27 c-46 48 -48 112 -4 153 41 39 81 42 134 8z"/>
<path d="M1581 864 c0 -11 3 -14 6 -6 3 7 2 16 -1 19 -3 4 -6 -2 -5 -13z"/>
<path d="M1170 789 c0 -5 5 -7 10 -4 6 3 10 8 10 11 0 2 -4 4 -10 4 -5 0 -10
-5 -10 -11z"/>
<path d="M5300 915 c0 -102 0 -188 0 -192 0 -5 12 -8 26 -8 l27 0 -2 85 c-2
79 0 88 23 113 35 38 79 40 109 5 13 -16 17 -39 17 -114 l0 -94 31 0 c24 0 30
3 25 16 -3 9 -6 58 -6 111 0 93 -1 95 -31 124 -39 37 -83 38 -133 4 l-37 -25
1 67 c2 95 3 93 -25 93 l-25 0 0 -185z m50 4 c0 -5 -4 -9 -8 -9 -5 0 -9 7 -9
15 0 8 4 12 9 9 4 -3 8 -9 8 -15z"/>
<path d="M2710 894 l0 -182 25 -4 c13 -3 27 -3 30 0 3 3 5 32 5 64 l0 58 54 0
c49 0 56 -3 80 -34 14 -19 26 -39 26 -44 0 -16 34 -40 68 -47 17 -3 32 -4 32
-1 0 4 -22 36 -50 71 -27 35 -50 67 -50 70 0 3 8 5 18 5 19 0 37 17 60 57 17
32 15 58 -8 103 -25 48 -52 57 -187 62 l-103 4 0 -182z m224 115 c34 -27 36
-77 3 -107 -17 -17 -39 -22 -95 -26 l-72 -4 0 79 0 79 69 0 c54 0 74 -4 95
-21z"/>
<path d="M4304 894 l1 -184 98 0 c140 0 190 24 227 108 24 54 25 87 4 138 -36
88 -86 114 -230 119 l-100 3 0 -184z m215 118 c48 -26 73 -75 68 -135 -7 -79
-50 -111 -159 -120 l-68 -5 0 139 0 139 63 0 c41 0 74 -6 96 -18z"/>
<path d="M3150 971 c-72 -38 -98 -115 -63 -188 22 -48 66 -73 128 -73 64 0
111 28 132 77 29 72 1 151 -68 185 -44 23 -86 23 -129 -1z m99 -35 c65 -34 80
-106 31 -154 -40 -40 -72 -45 -114 -16 -47 32 -57 79 -27 127 18 30 50 54 74
56 4 1 21 -6 36 -13z"/>
<path d="M3477 967 c-46 -28 -67 -66 -67 -123 0 -57 16 -90 57 -115 67 -41
168 -23 209 38 26 39 25 124 -2 160 -46 62 -131 80 -197 40z m131 -42 c71 -60
34 -175 -57 -175 -17 0 -42 10 -58 24 -23 20 -28 32 -28 71 0 40 5 51 33 76
40 36 71 37 110 4z"/>
<path d="M3768 853 c2 -76 4 -139 5 -140 1 0 11 -3 22 -5 19 -3 20 4 25 93 5
99 15 124 55 139 28 11 73 -15 81 -45 3 -14 5 -61 3 -104 l-4 -79 27 -4 28 -5
0 91 c0 71 4 96 18 112 24 30 53 43 77 34 40 -15 47 -36 49 -137 1 -96 1 -97
26 -97 l24 0 -2 108 c-2 119 -12 149 -60 167 -38 15 -94 4 -116 -23 l-20 -23
-27 28 c-34 33 -84 36 -122 7 -14 -11 -28 -20 -31 -20 -3 0 -6 9 -6 20 0 15
-7 20 -27 20 l-28 0 3 -137z m232 62 c0 -12 -19 -12 -23 0 -4 9 -1 12 9 8 7
-3 14 -7 14 -8z"/>
<path d="M4753 977 c-35 -13 -39 -19 -25 -43 7 -13 12 -13 46 1 23 10 50 14
66 10 30 -7 65 -49 55 -65 -3 -6 -36 -10 -72 -10 -87 0 -123 -24 -123 -80 0
-78 92 -113 165 -63 26 17 36 17 29 -2 -5 -11 2 -15 26 -15 25 0 31 3 26 16
-3 9 -6 58 -6 109 0 84 -2 97 -23 121 -19 22 -34 28 -78 30 -30 2 -69 -2 -86
-9z m142 -147 c4 -6 -2 -25 -12 -43 -25 -43 -83 -59 -113 -32 -45 41 -8 85 72
85 26 0 50 -5 53 -10z"/>
<path d="M5060 971 c-32 -17 -35 -22 -35 -62 0 -42 2 -45 45 -65 25 -12 58
-25 75 -30 39 -12 43 -37 9 -59 -26 -17 -29 -17 -78 4 -50 21 -65 17 -66 -16
0 -31 143 -45 185 -17 13 8 27 29 30 45 11 47 -15 75 -87 97 -54 15 -63 21
-63 41 0 38 28 48 80 30 43 -16 46 -16 55 1 14 27 14 28 -27 39 -54 15 -84 14
-123 -8z"/>
</g>
</svg>
